<svg width="500" height="70" viewBox="0 0 500 70" xmlns="http://www.w3.org/2000/svg">
<defs><filter id="softglow"><feGaussianBlur stdDeviation="0.8" result="blur"/><feMerge><feMergeNode in="blur"/><feMergeNode in="SourceGraphic"/></feMerge></filter></defs>
<rect width="500" height="70" fill="#ffffff"/>
<line x1="0" y1="69" x2="500" y2="69" stroke="#e2e8f0" stroke-width="0.8"/>
<text x="8" y="11" font-family="Arial, sans-serif" font-size="9" fill="#94a3b8" font-style="italic">4 — Active user — write context</text>
<line x1="22" y1="20" x2="14" y2="29" stroke="#3b82f6" stroke-width="0.7" opacity="0.5"/><line x1="22" y1="20" x2="30" y2="29" stroke="#3b82f6" stroke-width="0.7" opacity="0.5"/><line x1="22" y1="20" x2="22" y2="35" stroke="#8b5cf6" stroke-width="0.7" opacity="0.45"/><line x1="14" y1="29" x2="8" y2="40" stroke="#10b981" stroke-width="0.7" opacity="0.4"/><line x1="30" y1="29" x2="36" y2="40" stroke="#10b981" stroke-width="0.7" opacity="0.4"/><line x1="22" y1="35" x2="14" y2="44" stroke="#8b5cf6" stroke-width="0.7" opacity="0.35"/><line x1="22" y1="35" x2="30" y2="44" stroke="#8b5cf6" stroke-width="0.7" opacity="0.35"/><line x1="14" y1="44" x2="22" y2="51" stroke="#10b981" stroke-width="0.7" opacity="0.4"/><line x1="30" y1="44" x2="22" y2="51" stroke="#10b981" stroke-width="0.7" opacity="0.4"/>
<g filter="url(#softglow)"><circle cx="22" cy="20" r="3" fill="#93c5fd"/><circle cx="22" cy="20" r="1.2" fill="#fff"/></g><g filter="url(#softglow)"><circle cx="14" cy="29" r="2.1" fill="#93c5fd"/><circle cx="14" cy="29" r="0.8" fill="#fff"/></g><g filter="url(#softglow)"><circle cx="22" cy="35" r="2.5" fill="#c4b5fd"/><circle cx="22" cy="35" r="1" fill="#fff"/></g><g filter="url(#softglow)"><circle cx="30" cy="29" r="2.1" fill="#93c5fd"/><circle cx="30" cy="29" r="0.8" fill="#fff"/></g><g filter="url(#softglow)"><circle cx="8" cy="40" r="1.6" fill="#6ee7b7"/><circle cx="8" cy="40" r="0.6" fill="#fff"/></g><g filter="url(#softglow)"><circle cx="14" cy="44" r="1.6" fill="#6ee7b7"/><circle cx="14" cy="44" r="0.6" fill="#fff"/></g><g filter="url(#softglow)"><circle cx="30" cy="44" r="1.6" fill="#6ee7b7"/><circle cx="30" cy="44" r="0.6" fill="#fff"/></g><g filter="url(#softglow)"><circle cx="36" cy="40" r="1.6" fill="#6ee7b7"/><circle cx="36" cy="40" r="0.6" fill="#fff"/></g><g filter="url(#softglow)"><circle cx="22" cy="51" r="1.9" fill="#93c5fd"/><circle cx="22" cy="51" r="0.7" fill="#fff"/></g>
<text x="46" y="30" font-family="Arial, sans-serif" font-size="14" font-weight="600" fill="#1e3a5f" letter-spacing="0.5">ODIP Space</text>
<text x="46" y="43" font-family="Arial, sans-serif" font-size="10" fill="#94a3b8">v1.0</text>
<line x1="148" y1="18" x2="148" y2="58" stroke="#e2e8f0" stroke-width="0.8"/>
<text x="162" y="30" font-family="Arial, sans-serif" font-size="12" font-weight="500" fill="#1e3a5f">Yv</text>
<circle cx="182" cy="26" r="4" fill="#10b981"/>
<text x="191" y="30" font-family="Arial, sans-serif" font-size="11" fill="#64748b">Connected</text>
<text x="162" y="47" font-family="Arial, sans-serif" font-size="10" fill="#64748b">ODIP Dataset</text>
<rect x="240" y="37" width="76" height="13" rx="3" fill="#fff7ed" stroke="#f97316" stroke-width="1"/>
<text x="278" y="48" text-anchor="middle" font-family="Arial, sans-serif" font-size="9" font-weight="600" fill="#ea580c">READ / WRITE</text>
</svg>
